<?xml version="1.0" encoding="utf-8"?>
<!-- Generator: Adobe Illustrator 18.1.1, SVG Export Plug-In . SVG Version: 6.00 Build 0)  -->
<svg version="1.1" id="Layer_1" xmlns="http://www.w3.org/2000/svg" xmlns:xlink="http://www.w3.org/1999/xlink" x="0px" y="0px"
	 viewBox="-289 389 16 16" enable-background="new -289 389 16 16" xml:space="preserve">
<path fill="none" d="M-293,385h24v24h-24V385z"/>
<path d="M-282.7,400.2l1.3,1.3l4.4-4.4l-4.4-4.4l-1.3,1.3l2.3,2.3h-8.6v1.8h8.6L-282.7,400.2z M-274.8,389h-12.4
	c-1,0-1.8,0.8-1.8,1.8v3.6h1.8v-3.6h12.4v12.4h-12.4v-3.6h-1.8v3.6c0,1,0.8,1.8,1.8,1.8h12.4c1,0,1.8-0.8,1.8-1.8v-12.4
	C-273,389.8-273.8,389-274.8,389z"/>
</svg>
