<?xml version="1.0" encoding="utf-8"?>
<!-- Generator: Adobe Illustrator 18.1.1, SVG Export Plug-In . SVG Version: 6.00 Build 0)  -->
<svg version="1.1" id="Layer_1" xmlns="http://www.w3.org/2000/svg" xmlns:xlink="http://www.w3.org/1999/xlink" x="0px" y="0px"
	 viewBox="299 370 14 14" enable-background="new 299 370 14 14" xml:space="preserve">
<path fill="none" d="M-442,326h918v918h-918V326z"/>
<path d="M306,370c-3.9,0-7,3.1-7,7s3.1,7,7,7s7-3.1,7-7S309.9,370,306,370z M306,382.6c-3.1,0-5.6-2.5-5.6-5.6s2.5-5.6,5.6-5.6
	s5.6,2.5,5.6,5.6S309.1,382.6,306,382.6z M308.4,376.3c0.6,0,1.1-0.4,1.1-1.1s-0.4-1.1-1.1-1.1s-1.1,0.4-1.1,1.1
	S307.8,376.3,308.4,376.3z M303.6,376.3c0.6,0,1.1-0.4,1.1-1.1s-0.4-1.1-1.1-1.1s-1.1,0.4-1.1,1.1S302.9,376.3,303.6,376.3z
	 M306,378.4c-1.7,0-3,1.1-3.6,2.5h7.2C309,379.4,307.7,378.4,306,378.4z"/>
</svg>
