<?xml version="1.0" encoding="utf-8"?>
<!-- Generator: Adobe Illustrator 18.1.1, SVG Export Plug-In . SVG Version: 6.00 Build 0)  -->
<svg version="1.1" id="Layer_1" xmlns="http://www.w3.org/2000/svg" xmlns:xlink="http://www.w3.org/1999/xlink" x="0px" y="0px"
	 viewBox="-294 390 14 14" enable-background="new -294 390 14 14" xml:space="preserve">
<path fill="none" d="M-296,388h18v18h-18V388z"/>
<path d="M-289.6,396.1c0.5,0,0.9-0.4,0.9-0.9s-0.4-0.9-0.9-0.9s-0.9,0.4-0.9,0.9S-290.1,396.1-289.6,396.1z M-284.4,396.1
	c0.5,0,0.9-0.4,0.9-0.9s-0.4-0.9-0.9-0.9s-0.9,0.4-0.9,0.9S-284.9,396.1-284.4,396.1z M-287,400.9c1.9,0,3.4-1.3,3.8-3.1h-7.7
	C-290.4,399.6-288.9,400.9-287,400.9z M-287,390c-3.9,0-7,3.1-7,7s3.1,7,7,7s7-3.1,7-7S-283.1,390-287,390z M-287,402.7
	c-3.1,0-5.7-2.5-5.7-5.7s2.5-5.7,5.7-5.7s5.7,2.5,5.7,5.7S-283.9,402.7-287,402.7z"/>
</svg>
