<?xml version="1.0" encoding="utf-8"?>
<!-- Generator: Adobe Illustrator 18.1.1, SVG Export Plug-In . SVG Version: 6.00 Build 0)  -->
<svg version="1.1" id="Layer_1" xmlns="http://www.w3.org/2000/svg" xmlns:xlink="http://www.w3.org/1999/xlink" x="0px" y="0px"
	 viewBox="-288.8 389 15.6 16" enable-background="new -288.8 389 15.6 16" xml:space="preserve">
<path fill="none" d="M-293,385h24v24h-24V385z"/>
<path d="M-275.1,397.8c0-0.3,0.1-0.5,0.1-0.8s0-0.5-0.1-0.8l1.7-1.3c0.2-0.1,0.2-0.3,0.1-0.5l-1.6-2.8c-0.1-0.2-0.3-0.2-0.5-0.2
	l-2,0.8c-0.4-0.3-0.9-0.6-1.4-0.8l-0.3-2.1c0-0.2-0.2-0.3-0.4-0.3h-3.2c-0.2,0-0.4,0.1-0.4,0.3l-0.3,2.1c-0.5,0.2-0.9,0.5-1.4,0.8
	l-2-0.8c-0.2-0.1-0.4,0-0.5,0.2l-1.6,2.8c-0.1,0.2-0.1,0.4,0.1,0.5l1.7,1.3c0,0.3-0.1,0.5-0.1,0.8s0,0.5,0.1,0.8l-1.7,1.3
	c-0.2,0.1-0.2,0.3-0.1,0.5l1.6,2.8c0.1,0.2,0.3,0.2,0.5,0.2l2-0.8c0.4,0.3,0.9,0.6,1.4,0.8l0.3,2.1c0,0.2,0.2,0.3,0.4,0.3h3.2
	c0.2,0,0.4-0.1,0.4-0.3l0.3-2.1c0.5-0.2,0.9-0.5,1.4-0.8l2,0.8c0.2,0.1,0.4,0,0.5-0.2l1.6-2.8c0.1-0.2,0.1-0.4-0.1-0.5L-275.1,397.8
	z M-281,399.8c-1.5,0-2.8-1.3-2.8-2.8s1.3-2.8,2.8-2.8c1.5,0,2.8,1.3,2.8,2.8S-279.5,399.8-281,399.8z"/>
</svg>
