<?xml version="1.0" encoding="utf-8"?>
<!-- Generator: Adobe Illustrator 18.1.1, SVG Export Plug-In . SVG Version: 6.00 Build 0)  -->
<svg version="1.1" id="Layer_1" xmlns="http://www.w3.org/2000/svg" xmlns:xlink="http://www.w3.org/1999/xlink" x="0px" y="0px"
	 viewBox="-288.8 389.2 15 15" enable-background="new -288.8 389.2 15 15" xml:space="preserve">
<path d="M-278,398.7h-0.7l-0.2-0.2c0.8-1,1.3-2.2,1.3-3.6c0-3.1-2.5-5.6-5.6-5.6c-3.1,0-5.6,2.5-5.6,5.6c0,3.1,2.5,5.6,5.6,5.6
	c1.4,0,2.7-0.5,3.6-1.3l0.2,0.2v0.7l4.3,4.3l1.3-1.3L-278,398.7z M-283.2,398.7c-2.1,0-3.9-1.7-3.9-3.9s1.7-3.9,3.9-3.9
	s3.9,1.7,3.9,3.9S-281,398.7-283.2,398.7z"/>
<path fill="none" d="M-293,385h24v24h-24V385z"/>
</svg>
