<?xml version="1.0" encoding="utf-8"?>
<!-- Generator: Adobe Illustrator 18.1.1, SVG Export Plug-In . SVG Version: 6.00 Build 0)  -->
<svg version="1.1" id="Layer_1" xmlns="http://www.w3.org/2000/svg" xmlns:xlink="http://www.w3.org/1999/xlink" x="0px" y="0px"
	 viewBox="-287.3 390 12.7 14" enable-background="new -287.3 390 12.7 14" xml:space="preserve">
<path fill="none" d="M-293,385h24v24h-24V385z"/>
<path d="M-276.8,399.9c-0.5,0-1,0.2-1.4,0.5l-5-2.9c0-0.2,0.1-0.3,0.1-0.5s0-0.3-0.1-0.5l5-2.9c0.4,0.4,0.9,0.6,1.4,0.6
	c1.2,0,2.1-0.9,2.1-2.1s-0.9-2.1-2.1-2.1c-1.2,0-2.1,0.9-2.1,2.1c0,0.2,0,0.3,0.1,0.5l-5,2.9c-0.4-0.4-0.9-0.6-1.4-0.6
	c-1.2,0-2.1,0.9-2.1,2.1c0,1.2,0.9,2.1,2.1,2.1c0.6,0,1.1-0.2,1.4-0.6l5,2.9c0,0.1-0.1,0.3-0.1,0.5c0,1.1,0.9,2.1,2.1,2.1
	s2.1-0.9,2.1-2.1S-275.7,399.9-276.8,399.9z"/>
</svg>
