<?xml version="1.0" encoding="utf-8"?>
<!-- Generator: Adobe Illustrator 18.1.1, SVG Export Plug-In . SVG Version: 6.00 Build 0)  -->
<svg version="1.1" id="Layer_1" xmlns="http://www.w3.org/2000/svg" xmlns:xlink="http://www.w3.org/1999/xlink" x="0px" y="0px"
	 viewBox="298 424.7 16 13.9" enable-background="new 298 424.7 16 13.9" xml:space="preserve">
<path fill="none" d="M-442,308.5h918v918h-918V308.5z M-442,308.5h918v918h-918V308.5z M-442,308.5h918v918h-918V308.5z M-442,308.5
	h918v918h-918V308.5z"/>
<path d="M306.1,427.6c2,0,3.6,1.6,3.6,3.6c0,0.5-0.1,0.9-0.3,1.3l2.1,2.1c1.1-0.9,2-2.1,2.5-3.5c-1.3-3.2-4.4-5.5-8.1-5.5
	c-1,0-2,0.2-2.9,0.5l1.6,1.6C305.1,427.7,305.5,427.6,306.1,427.6z M298.7,425.6l1.7,1.7l0.3,0.3c-1.2,0.9-2.2,2.2-2.7,3.6
	c1.3,3.2,4.4,5.5,8.1,5.5c1.1,0,2.2-0.2,3.2-0.6l0.3,0.3l2.1,2.1l0.9-0.9l-13-13L298.7,425.6z M302.7,429.6l1.1,1.1
	c0,0.2-0.1,0.3-0.1,0.5c0,1.2,1,2.2,2.2,2.2c0.2,0,0.3,0,0.5-0.1l1.1,1.1c-0.5,0.2-1,0.4-1.6,0.4c-2,0-3.6-1.6-3.6-3.6
	C302.4,430.7,302.5,430.1,302.7,429.6z M305.9,429.1l2.3,2.3v-0.1c0-1.2-1-2.2-2.2-2.2L305.9,429.1z"/>
</svg>
