<?xml version="1.0" encoding="utf-8"?>
<!-- Generator: Adobe Illustrator 18.1.1, SVG Export Plug-In . SVG Version: 6.00 Build 0)  -->
<svg version="1.1" id="Layer_1" xmlns="http://www.w3.org/2000/svg" xmlns:xlink="http://www.w3.org/1999/xlink" x="0px" y="0px"
	 viewBox="-289 391.5 16 10.9" enable-background="new -289 391.5 16 10.9" xml:space="preserve">
<path fill="none" d="M-293,385h24v24h-24V385z"/>
<path d="M-281,391.5c-3.6,0-6.7,2.3-8,5.5c1.3,3.2,4.4,5.5,8,5.5s6.7-2.3,8-5.5C-274.3,393.8-277.4,391.5-281,391.5z M-281,400.6
	c-2,0-3.6-1.6-3.6-3.6c0-2,1.6-3.6,3.6-3.6s3.6,1.6,3.6,3.6C-277.4,399-279,400.6-281,400.6z M-281,394.8c-1.2,0-2.2,1-2.2,2.2
	c0,1.2,1,2.2,2.2,2.2s2.2-1,2.2-2.2C-278.8,395.8-279.8,394.8-281,394.8z"/>
</svg>
