<?xml version="1.0" encoding="utf-8"?>
<!-- Generator: Adobe Illustrator 18.1.1, SVG Export Plug-In . SVG Version: 6.00 Build 0)  -->
<svg version="1.1" id="Layer_1" xmlns="http://www.w3.org/2000/svg" xmlns:xlink="http://www.w3.org/1999/xlink" x="0px" y="0px"
	 viewBox="199 390.7 16 12.6" enable-background="new 199 390.7 16 12.6" xml:space="preserve">
<g>
	<path d="M199,401.3h10.1c0.2-0.5,0.7-0.9,1.3-0.9s1.1,0.4,1.3,0.9h3.3v1.1h-3.3c-0.2,0.5-0.7,0.9-1.3,0.9s-1.1-0.4-1.3-0.9H199"/>
	<path d="M199,396.4h3.3c0.2-0.5,0.7-0.9,1.3-0.9s1.1,0.4,1.3,0.9H215v1.1h-10.1c-0.2,0.5-0.7,0.9-1.3,0.9s-1.1-0.4-1.3-0.9H199"/>
	<path d="M199,391.6h10.1c0.2-0.5,0.7-0.9,1.3-0.9s1.1,0.4,1.3,0.9h3.3v1.1h-3.3c-0.2,0.5-0.7,0.9-1.3,0.9s-1.1-0.4-1.3-0.9H199"/>
</g>
</svg>
